# xmcd
#
# Track frame offsets:
#	150
#	10444
#	23839
#	35846
#	47063
#	56711
#	67448
#	77672
#	89844
#	101207
#	107935
#	120144
#
# Disc length: 1755 seconds
#
# Revision: 1
# Processed by: cddbd v1.4PL0 Copyright (c) Steve Scherf et al.
# Submitted via: audiograbber 1.80.04
#
DISCID=ac06d90c
DTITLE=Willie Nelson - The Signature Series (Made in Canada)
DYEAR=2001
DGENRE=Country
TTITLE0=Blame It On The Times
TTITLE1=Everything But You
TTITLE2=Happiness Lives Next Door
TTITLE3=I'm Gonna Lose A Lot Of Teardrops
TTITLE4=Let's Pretend
TTITLE5=Touch Me (live)
TTITLE6=Broken Promises 
TTITLE7=I Can't Find The Time
TTITLE8=Is There Something On Your Mind
TTITLE9=Both Ends Of The Candle
TTITLE10=Shelter Of Your Arms
TTITLE11=The Last Letter (live)
EXTD=A compilation disk made by Direct Source Special Products.
EXTT0=
EXTT1=
EXTT2=
EXTT3=
EXTT4=
EXTT5=
EXTT6=
EXTT7=
EXTT8=
EXTT9=
EXTT10=
EXTT11=
PLAYORDER=
